<svg xmlns="http://www.w3.org/2000/svg" xmlns:xlink="http://www.w3.org/1999/xlink" width="48.344" height="138.358" viewBox="0 0 48.344 138.358"><defs><clipPath id="clip-path"><path id="Rectangle_20" data-name="Rectangle 20" d="M0 0h138.358v48.344H0z" fill="#fff"/></clipPath></defs><g id="menu-logo" transform="translate(0 138.358) rotate(-90)"><g id="Group_35" data-name="Group 35" clip-path="url(#clip-path)"><path id="Path_17468" data-name="Path 17468" d="M44.353 49.092H44.04q-9.108.0-18.215.0c-.649.0-1.3-.026-1.946-.053-.628-.026-1.257-.055-1.884-.106a20.151 20.151.0 0 1-4.252-.787A29.319 29.319.0 0 1 12.6 46.084a23.337 23.337.0 0 1-3.439-2.223 23.788 23.788.0 0 1-2.844-2.6 23.114 23.114.0 0 1-2.937-3.9 22 22 0 0 1-2.268-5.048C.776 31.171.507 30 .281 28.825a18.045 18.045.0 0 1-.222-2.282A19.847 19.847.0 0 1 .01 24.52c.034-.869.118-1.736.2-2.6a21.418 21.418.0 0 1 1.213-5.154 19.864 19.864.0 0 1 1.792-3.821c.616-.989 1.266-1.959 1.932-2.915a12.038 12.038.0 0 1 .98-1.154c.335-.371.675-.738 1.034-1.086a22.041 22.041.0 0 1 4-3.073A21.449 21.449.0 0 1 15.88 2.6a25.615 25.615.0 0 1 3.775-.893c.864-.13 1.73-.26 2.6-.365.622-.075 1.248-.125 1.873-.159.927-.049 1.855-.1 2.782-.105q8.6-.039 17.2-.057h.226V7.985h-.3c-2.785.0-5.569-.007-8.354.0Q30.9 8 26.122 8.043c-.769.007-1.539.048-2.306.105a17.329 17.329.0 0 0-4.89.993 16.949 16.949.0 0 0-4.73 2.548 21.7 21.7.0 0 0-1.95 1.744A14.743 14.743.0 0 0 10 16.45a15.52 15.52.0 0 0-1.642 4.37 13.787 13.787.0 0 0-.269 1.927 23.159 23.159.0 0 0-.1 2.673c.04.986.176 1.97.306 2.95a14.156 14.156.0 0 0 .953 3.4 15.826 15.826.0 0 0 1.831 3.335 16.31 16.31.0 0 0 2.3 2.606 14.63 14.63.0 0 0 3.7 2.483 17.144 17.144.0 0 0 3.7 1.233c.871.18 1.754.312 2.637.424.7.088 1.406.122 2.111.162q.853.049 1.708.054c3.063.021 6.127.049 9.19.051 2.535.0 5.07-.028 7.6-.054.252.0.329.065.328.323-.01 2.14-.006 4.28-.006 6.419z" transform="translate(0 -0.754)" fill="#fff"/><path id="Path_17469" data-name="Path 17469" d="M191.457 7.979V1.015h.274c6.089.0 12.179-.009 18.268.009.947.0 1.9.123 2.842.2.692.058 1.387.114 2.073.217.871.131 1.744.269 2.6.478 1.13.277 2.259.574 3.357.953a19.409 19.409.0 0 1 5.5 2.964c.641.492 1.256 1.018 1.866 1.547a20.064 20.064.0 0 1 3.121 3.569 23.569 23.569.0 0 1 2.065 3.506 21.845 21.845.0 0 1 1.838 5.453 29.5 29.5.0 0 1 .416 2.954 30.6 30.6.0 0 1 .1 3.2c-.017.83-.152 1.658-.25 2.486a20.724 20.724.0 0 1-1.108 4.515 24.106 24.106.0 0 1-1.838 3.944 20.7 20.7.0 0 1-2.24 3.208 29.421 29.421.0 0 1-2.272 2.377 22.664 22.664.0 0 1-4.279 3.111 24.754 24.754.0 0 1-4.061 1.827c-1.016.354-2.058.642-3.1.913a12.849 12.849.0 0 1-1.812.31c-.744.083-1.494.119-2.243.163-.489.029-.98.052-1.47.053q-9.711.031-19.421.055h-.225V42.069h.326q7.759.0 15.518.0 1.317.0 2.634-.055c.74-.031 1.48-.082 2.217-.158a21.519 21.519.0 0 0 4.288-.859 16.934 16.934.0 0 0 2.834-1.137 12.8 12.8.0 0 0 2.519-1.685 22.479 22.479.0 0 0 1.646-1.547 16.2 16.2.0 0 0 2.108-2.86 16.5 16.5.0 0 0 1.832-4.742 15.976 15.976.0 0 0 .323-2.26 27 27 0 0 0 .1-2.964 16.706 16.706.0 0 0-.636-4.069 15.048 15.048.0 0 0-1.043-2.7 12.723 12.723.0 0 0-1.794-2.724c-.56-.627-1.121-1.259-1.735-1.831a14.881 14.881.0 0 0-3.022-2.146 17.552 17.552.0 0 0-3.258-1.4 22.3 22.3.0 0 0-2.534-.621 15.009 15.009.0 0 0-1.976-.17c-1.059-.051-2.119-.1-3.179-.106q-4.568-.044-9.137-.056c-2.564-.009-5.129.0-7.693.0z" transform="translate(-141.32 -0.748)" fill="#fff"/><path id="Path_17470" data-name="Path 17470" d="M369.794 12.108c-.345.828-.676 1.612-1 2.4-.441 1.068-.877 2.139-1.316 3.208q-.86 2.1-1.722 4.189c-.575 1.4-1.143 2.8-1.734 4.184-.531 1.246-1.093 2.479-1.635 3.72-.644 1.471-1.289 2.942-1.922 4.417q-1.118 2.606-2.214 5.221c-.623 1.479-1.234 2.963-1.857 4.442q-.909 2.16-1.835 4.313c-.026.06-.116.1-.184.133a.322.322.0 0 1-.13.0h-7.763L367.122.0h.548c1.542.0 3.084.0 4.626.0a.323.323.0 0 1 .357.219c.54 1.244 1.094 2.482 1.645 3.721.373.837.75 1.671 1.123 2.508.563 1.262 1.121 2.527 1.684 3.789.391.876.793 1.747 1.183 2.623.614 1.381 1.22 2.766 1.835 4.147.4.908.824 1.809 1.228 2.717.527 1.184 1.042 2.372 1.567 3.556.382.861.771 1.719 1.154 2.579.552 1.239 1.1 2.48 1.653 3.718.324.726.66 1.447.983 2.173.537 1.207 1.066 2.418 1.6 3.627.312.7.631 1.4.944 2.105q.828 1.858 1.653 3.718c.327.734.663 1.464.989 2.2.534 1.2 1.062 2.4 1.6 3.6.2.441.4.877.616 1.34h-1.041c-2.238.0-4.477.0-6.715.0a.323.323.0 0 1-.351-.218q-.8-1.813-1.619-3.62-.929-2.069-1.861-4.137c-.441-.977-.9-1.946-1.331-2.927-.425-.962-.823-1.937-1.242-2.9-.207-.476-.436-.942-.653-1.414q-1.018-2.215-2.034-4.431c-.331-.723-.648-1.452-.981-2.174-.312-.674-.647-1.338-.952-2.015-.55-1.221-1.082-2.449-1.628-3.672-.394-.884-.8-1.762-1.2-2.646-.541-1.215-1.072-2.435-1.612-3.65-.354-.8-.717-1.588-1.1-2.428" transform="translate(-255.749 0.001)" fill="#fff"/></g></g></svg>